# xmcd CD database file
#
# Track frame offsets:
#	150
#	15225
#	28277
#	44152
#	54612
#	67280
#	82335
#	100265
#	116922
#	129700
#	139895
#	153872
#	167855
#
# Disc length: 2654 seconds
#
# Revision: 0
# Processed by: cddbd v1.5.2PL0 Copyright (c) Steve Scherf et al.
# Submitted via: CDex 1.70beta2
#
DISCID=c50a5c0d
DTITLE=Campfire - Campfire
DYEAR=1990
DGENRE=Country
TTITLE0=Wreck Of The Old 97
TTITLE1=Okie From Muskogee
TTITLE2=Streets Of Baltimore
TTITLE3=Take Me Back To Tulsa
TTITLE4=Together Again
TTITLE5=Jack Pierre Bardoux
TTITLE6=Six Days On The Road
TTITLE7=Ghostriders In The Sky
TTITLE8=Louisiana Saturday Night
TTITLE9=Honky Tonk Man
TTITLE10=Fraulein
TTITLE11=Truck Drivin' Man
TTITLE12=Orange Blossom Special
EXTD=YEAR: 1990
EXTT0=
EXTT1=
EXTT2=
EXTT3=
EXTT4=
EXTT5=
EXTT6=
EXTT7=
EXTT8=
EXTT9=
EXTT10=
EXTT11=
EXTT12=
PLAYORDER=
